<svg xmlns="http://www.w3.org/2000/svg" xmlns:xlink="http://www.w3.org/1999/xlink" viewBox="0 0 900 900">
  <defs>
    <style>
      .cls-1 {
        clip-path: url(#clip-background);
      }

      .cls-2 {
        fill: #fff;
        opacity: 0.5;
      }
    </style>
    <clipPath id="clip-background">
      <rect width="900" height="900"/>
    </clipPath>
  </defs>
  <g id="background" class="cls-1">
    <path id="Union_3" data-name="Union 3" class="cls-2" d="M12014.313-10273.128a151.881,151.881,0,0,1-30.322-3.052,149.464,149.464,0,0,1-28.229-8.748,150.058,150.058,0,0,1-25.535-13.846,150.9,150.9,0,0,1-22.242-18.343,151.057,151.057,0,0,1-18.342-22.238,150.336,150.336,0,0,1-13.847-25.535,149.812,149.812,0,0,1-8.747-28.229,151.816,151.816,0,0,1-3.049-30.323,151.843,151.843,0,0,1,3.049-30.325,149.844,149.844,0,0,1,8.747-28.229,150.439,150.439,0,0,1,13.847-25.534,151.21,151.21,0,0,1,18.342-22.238,151.052,151.052,0,0,1,22.242-18.343,149.99,149.99,0,0,1,25.535-13.846,149.464,149.464,0,0,1,28.229-8.748,151.807,151.807,0,0,1,30.322-3.049h52.759v-18.917h-57.238a81.437,81.437,0,0,1-31.937-6.46,82.4,82.4,0,0,1-13.951-7.579,82.844,82.844,0,0,1-12.158-10.036,82.946,82.946,0,0,1-10.036-12.158,82.322,82.322,0,0,1-7.58-13.948,81.482,81.482,0,0,1-6.463-31.94v-171.717a81.465,81.465,0,0,1,6.463-31.938,82.4,82.4,0,0,1,7.58-13.95,83.057,83.057,0,0,1,10.036-12.159,82.9,82.9,0,0,1,12.158-10.035,82.185,82.185,0,0,1,13.951-7.577,81.4,81.4,0,0,1,31.938-6.463H12242.2l45.867-74.092,10.949,6.473-41.513,67.619h204.27a81.413,81.413,0,0,1,31.938,6.463,82.362,82.362,0,0,1,13.95,7.577,83.1,83.1,0,0,1,12.158,10.035,82.851,82.851,0,0,1,10.033,12.159,81.985,81.985,0,0,1,7.58,13.95,81.413,81.413,0,0,1,6.463,31.938v171.717a80.183,80.183,0,0,1-6.1,31.729,80.616,80.616,0,0,1-7.408,13.878,81.8,81.8,0,0,1-9.884,12.12,82.014,82.014,0,0,1-12.218,10.166,82.291,82.291,0,0,1-14.088,7.681,82.569,82.569,0,0,1-32.43,6.549h-40.815v18.917h71.177a151.785,151.785,0,0,1,30.322,3.049,149.474,149.474,0,0,1,28.229,8.748,149.981,149.981,0,0,1,25.534,13.846,150.666,150.666,0,0,1,22.238,18.343,151.174,151.174,0,0,1,18.346,22.238,150.37,150.37,0,0,1,13.847,25.534,149.844,149.844,0,0,1,8.747,28.229,151.843,151.843,0,0,1,3.049,30.325,153.03,153.03,0,0,1-3.211,30.323,151.185,151.185,0,0,1-8.867,28.229,151.514,151.514,0,0,1-13.917,25.535,152.076,152.076,0,0,1-18.364,22.238,151.657,151.657,0,0,1-22.216,18.343,150.166,150.166,0,0,1-25.465,13.846,148.776,148.776,0,0,1-28.111,8.748,150.41,150.41,0,0,1-30.161,3.052ZM12461.36-10442a4.916,4.916,0,0,0-1.628,3.8,4.991,4.991,0,0,0,1.628,3.858c1.082.978,2.919,1.476,5.464,1.476h3.829v23.34a13.336,13.336,0,0,0,1.234,5.727,14.525,14.525,0,0,0,3.706,4.756,16.187,16.187,0,0,0,6.181,3.2,31.424,31.424,0,0,0,8.649,1.069,49.658,49.658,0,0,0,12.6-2.043c4.962-1.358,8.335-2.865,10.017-4.48a4.679,4.679,0,0,0,1.656-3.569,5.211,5.211,0,0,0-1.529-3.778,4.894,4.894,0,0,0-3.6-1.552,10.1,10.1,0,0,0-4.14,1.346,33.056,33.056,0,0,1-15.011,3.468c-3.709,0-6.32-.578-7.765-1.71-.926-.721-1.4-2.234-1.4-4.5v-21.271h19.614c2.541,0,4.379-.5,5.46-1.476a4.919,4.919,0,0,0,1.631-3.8,4.973,4.973,0,0,0-1.631-3.855c-1.081-.98-2.919-1.476-5.46-1.476h-19.614v-9.578c0-2.538-.5-4.376-1.476-5.458a4.923,4.923,0,0,0-3.8-1.631,4.984,4.984,0,0,0-3.857,1.631c-.978,1.082-1.473,2.92-1.473,5.458v9.578h-3.829C12464.279-10443.475,12462.442-10442.979,12461.36-10442Zm-55.871.645a24.975,24.975,0,0,0-10.118,9.654,24.956,24.956,0,0,0-3.519,12.5,22.993,22.993,0,0,0,3.469,12.01,24.19,24.19,0,0,0,10.093,9.083,30.567,30.567,0,0,0,13.871,3.338,30.757,30.757,0,0,0,14-3.392,23.98,23.98,0,0,0,10.093-9.109,23,23,0,0,0,3.392-11.825,25.36,25.36,0,0,0-3.417-12.5,24.73,24.73,0,0,0-10.118-9.677,29.224,29.224,0,0,0-13.948-3.6A29.053,29.053,0,0,0,12405.489-10441.354Zm-56.724,45.5a30.744,30.744,0,0,0,8.177,1.088,31.947,31.947,0,0,0,10.791-1.729,23.983,23.983,0,0,0,8.462-5.182,23.125,23.125,0,0,0,5.476-7.758,24.094,24.094,0,0,0,1.825-9.451,25.791,25.791,0,0,0-1.917-9.976,25.9,25.9,0,0,0-5.743-8.4,25.919,25.919,0,0,0-8.5-5.705,26.866,26.866,0,0,0-10.185-1.9,26.836,26.836,0,0,0-8.1,1.269,32.167,32.167,0,0,0-7.895,3.8v-23.81h-12.422c-2.541,0-4.382.5-5.463,1.476a4.922,4.922,0,0,0-1.628,3.8,4.988,4.988,0,0,0,1.628,3.854c1.081.978,2.919,1.476,5.463,1.476h1.812v45.908h-1.812c-2.506,0-4.337.5-5.435,1.475a4.877,4.877,0,0,0-1.656,3.8,4.991,4.991,0,0,0,1.628,3.858c1.081.977,2.922,1.472,5.463,1.472h12.422v-2.586A32.654,32.654,0,0,0,12348.766-10395.859Zm-81.415-46.14a4.908,4.908,0,0,0-1.631,3.8,4.983,4.983,0,0,0,1.631,3.858c1.082.978,2.919,1.476,5.461,1.476h3.829v23.34a13.3,13.3,0,0,0,1.237,5.727,14.46,14.46,0,0,0,3.706,4.756,16.173,16.173,0,0,0,6.178,3.2,31.461,31.461,0,0,0,8.652,1.069,49.671,49.671,0,0,0,12.6-2.043c4.962-1.358,8.332-2.865,10.014-4.48a4.67,4.67,0,0,0,1.656-3.569,5.2,5.2,0,0,0-1.526-3.778,4.893,4.893,0,0,0-3.6-1.552,10.1,10.1,0,0,0-4.141,1.346,33.044,33.044,0,0,1-15.008,3.468c-3.709,0-6.32-.578-7.768-1.71-.926-.721-1.4-2.234-1.4-4.5v-21.271h19.617c2.542,0,4.379-.5,5.461-1.476a4.919,4.919,0,0,0,1.631-3.8,4.973,4.973,0,0,0-1.631-3.855c-1.082-.98-2.919-1.476-5.461-1.476h-19.617v-9.578c0-2.538-.5-4.376-1.473-5.458a4.928,4.928,0,0,0-3.807-1.631,4.98,4.98,0,0,0-3.855,1.631c-.978,1.082-1.476,2.92-1.476,5.458v9.578h-3.829C12270.27-10443.475,12268.433-10442.979,12267.351-10442Zm-185.211.645a24.952,24.952,0,0,0-10.121,9.654,24.935,24.935,0,0,0-3.519,12.5,23.009,23.009,0,0,0,3.468,12.01,24.2,24.2,0,0,0,10.093,9.083,30.57,30.57,0,0,0,13.871,3.338,30.766,30.766,0,0,0,14-3.392,23.966,23.966,0,0,0,10.09-9.109,23,23,0,0,0,3.392-11.825,25.354,25.354,0,0,0-3.414-12.5,24.714,24.714,0,0,0-10.121-9.677,29.2,29.2,0,0,0-13.948-3.6A29.041,29.041,0,0,0,12082.14-10441.354Zm119.5,35.738a4.921,4.921,0,0,0-1.631,3.8,4.983,4.983,0,0,0,1.631,3.858c1.082.977,2.919,1.472,5.46,1.472h36.075c2.545,0,4.382-.5,5.461-1.472a4.921,4.921,0,0,0,1.631-3.8,4.983,4.983,0,0,0-1.631-3.858c-1.082-.977-2.919-1.475-5.461-1.475h-12.732v-36.384H12211.3c-2.545,0-4.382.5-5.461,1.476a4.908,4.908,0,0,0-1.631,3.8,4.942,4.942,0,0,0,1.656,3.858c1.1.978,2.926,1.476,5.436,1.476h8.538v25.773H12207.1C12204.566-10407.091,12202.727-10406.593,12201.645-10405.616Zm-63.584,0a4.917,4.917,0,0,0-1.627,3.8,4.98,4.98,0,0,0,1.627,3.858c1.082.977,2.919,1.472,5.461,1.472h32.039c2.542,0,4.379-.5,5.461-1.472a4.924,4.924,0,0,0,1.631-3.8,4.986,4.986,0,0,0-1.631-3.858c-1.082-.977-2.919-1.475-5.461-1.475h-15.112v-25.773h16.353c2.545,0,4.382-.5,5.464-1.476a4.926,4.926,0,0,0,1.628-3.8,4.98,4.98,0,0,0-1.628-3.855c-1.082-.98-2.919-1.476-5.464-1.476h-16.353v-4.039a4.831,4.831,0,0,1,1.993-3.908c1.322-1.047,3.769-1.577,7.271-1.577a61.24,61.24,0,0,1,11.645,1.295,18.016,18.016,0,0,0,2.951.361,4.742,4.742,0,0,0,3.569-1.526,5.546,5.546,0,0,0,1.449-3.96,4.778,4.778,0,0,0-1.631-3.728c-1.081-.962-3.572-1.72-7.4-2.25a75.3,75.3,0,0,0-10.169-.8,30.133,30.133,0,0,0-8.716,1.146,17.046,17.046,0,0,0-6.371,3.434,15.31,15.31,0,0,0-3.9,5.171,15.318,15.318,0,0,0-1.3,6.346v4.039h-5.07c-2.541,0-4.378.5-5.46,1.476a4.908,4.908,0,0,0-1.631,3.8,4.983,4.983,0,0,0,1.631,3.858c1.082.978,2.919,1.476,5.46,1.476h5.07v25.773h-6.313C12140.979-10407.091,12139.146-10406.593,12138.061-10405.616Zm-131.463,0a4.928,4.928,0,0,0-1.628,3.8,4.991,4.991,0,0,0,1.628,3.858c1.082.977,2.919,1.472,5.46,1.472h32.04c2.541,0,4.378-.5,5.46-1.472a4.921,4.921,0,0,0,1.631-3.8,4.983,4.983,0,0,0-1.631-3.858c-1.082-.977-2.919-1.475-5.46-1.475h-15.112v-15.991a106.047,106.047,0,0,1,11.051-8.386c2.935-1.854,5.172-2.8,6.65-2.8a6.229,6.229,0,0,1,3.88,1.968,6.4,6.4,0,0,0,4.141,1.967,5.2,5.2,0,0,0,3.8-1.58,5.259,5.259,0,0,0,1.58-3.855c0-1.786-1.114-3.562-3.312-5.279a16.154,16.154,0,0,0-10.042-3.829,18.907,18.907,0,0,0-7.219,1.605,58.322,58.322,0,0,0-10.533,6.418v-6.625h-14.439c-2.545,0-4.382.5-5.461,1.476a4.908,4.908,0,0,0-1.631,3.8,4.983,4.983,0,0,0,1.631,3.858c1.079.978,2.916,1.476,5.461,1.476h3.829v25.773h-6.317C12009.52-10407.091,12007.683-10406.593,12006.6-10405.616Zm-63.92,0a4.887,4.887,0,0,0-1.653,3.8,4.981,4.981,0,0,0,1.628,3.858c1.082.977,2.919,1.472,5.464,1.472h22.978c2.541,0,4.382-.5,5.46-1.472a4.921,4.921,0,0,0,1.631-3.8,4.983,4.983,0,0,0-1.631-3.858c-1.082-.977-2.919-1.475-5.46-1.475h-10.715v-10.921h10.042a29.036,29.036,0,0,0,10.327-1.526,29.263,29.263,0,0,0,7.659-4.554,20.029,20.029,0,0,0,5.356-6.133,19.114,19.114,0,0,0,2.122-8.8,19.293,19.293,0,0,0-1.57-7.795,19.927,19.927,0,0,0-4.718-6.514,20.492,20.492,0,0,0-7.409-4.407,29.63,29.63,0,0,0-9.645-1.47l-24.428-.051c-2.542,0-4.382.5-5.464,1.476a4.975,4.975,0,0,0-1.628,3.855,4.981,4.981,0,0,0,1.628,3.858c1.082.977,2.919,1.475,5.464,1.475h1.656v41.508h-1.656C11945.606-10407.091,11943.778-10406.593,11942.678-10405.616Zm273.692-46.761H12229v-11.232h-12.631Zm-113.461-188.073h269.771v-20.408h-269.771Zm172.71-140.858a72.751,72.751,0,0,0,72.671,72.668,72.749,72.749,0,0,0,72.667-72.668,72.748,72.748,0,0,0-72.667-72.667A72.751,72.751,0,0,0,12275.619-10781.309Zm-223.479,0a72.751,72.751,0,0,0,72.671,72.668,72.751,72.751,0,0,0,72.667-72.668,72.75,72.75,0,0,0-72.667-72.667A72.751,72.751,0,0,0,12052.141-10781.309Zm360.608,374.846a16.685,16.685,0,0,1-5.422-3.239,16.227,16.227,0,0,1-3.649-4.486,10.285,10.285,0,0,1-1.215-4.8,13.739,13.739,0,0,1,1.2-5.7,16.157,16.157,0,0,1,3.611-4.969,16.168,16.168,0,0,1,5.409-3.455,18.356,18.356,0,0,1,6.6-1.152,18.273,18.273,0,0,1,7.387,1.45,16.391,16.391,0,0,1,5.81,4.347,14.242,14.242,0,0,1,3.677,9.42,10.389,10.389,0,0,1-1.218,4.846,16.039,16.039,0,0,1-3.649,4.5,16.639,16.639,0,0,1-5.435,3.239,19.362,19.362,0,0,1-6.571,1.082A19.185,19.185,0,0,1,12412.749-10406.463Zm-62.457.143a13.5,13.5,0,0,1-4.994-2.814,12.353,12.353,0,0,1-3.106-4.276,13.388,13.388,0,0,1-1.034-5.324,15.287,15.287,0,0,1,1.151-5.952,15.5,15.5,0,0,1,3.456-5.02,15.536,15.536,0,0,1,5.107-3.417,16.225,16.225,0,0,1,6.121-1.14,16.386,16.386,0,0,1,6.161,1.14,15.542,15.542,0,0,1,5.124,3.417,15.421,15.421,0,0,1,3.456,5.058,15.785,15.785,0,0,1,1.151,6.069,12.82,12.82,0,0,1-1.044,5.207,12.477,12.477,0,0,1-3.125,4.238,13.6,13.6,0,0,1-5.014,2.814,22.123,22.123,0,0,1-6.71.939A22.046,22.046,0,0,1,12350.292-10406.32Zm-260.9-.143a16.713,16.713,0,0,1-5.419-3.239,16.1,16.1,0,0,1-3.648-4.486,10.287,10.287,0,0,1-1.216-4.8,13.724,13.724,0,0,1,1.2-5.7,16.094,16.094,0,0,1,3.607-4.969,16.2,16.2,0,0,1,5.409-3.455,18.367,18.367,0,0,1,6.6-1.152,18.288,18.288,0,0,1,7.39,1.45,16.391,16.391,0,0,1,5.81,4.347,14.253,14.253,0,0,1,3.674,9.42,10.421,10.421,0,0,1-1.215,4.846,16.087,16.087,0,0,1-3.652,4.5,16.586,16.586,0,0,1-5.432,3.239,19.379,19.379,0,0,1-6.574,1.082A19.2,19.2,0,0,1,12089.4-10406.463Zm-129.017-22.159v-19.977h12.216c4.055,0,7.215.939,9.395,2.792a8.4,8.4,0,0,1,3.287,6.523,9.3,9.3,0,0,1-4.064,7.529c-2.694,2.078-6.4,3.132-11,3.132Zm380.008-308.152q-1.6-1.771-1.6-5.924v-9.772a44.181,44.181,0,0,1-8.985-2.976,7.23,7.23,0,0,1-4.49,2.021,5.618,5.618,0,0,1-4.353-1.741q-1.6-1.737-1.6-5.9v-7.243q0-4.156,1.6-5.924a5.377,5.377,0,0,1,4.182-1.768,5.4,5.4,0,0,1,3.483,1.123,6.328,6.328,0,0,1,2.021,3.452,8,8,0,0,0,1.738,3.509,12.672,12.672,0,0,0,5.141,3,21.26,21.26,0,0,0,7.1,1.206,16.834,16.834,0,0,0,10.667-3.312,6.821,6.821,0,0,0,2.865-5.67,6.3,6.3,0,0,0-1.91-4.718q-1.909-1.794-8.03-3.03l-8.646-1.742q-9.152-1.8-13.422-6.57a16.591,16.591,0,0,1-4.267-11.454,17.238,17.238,0,0,1,4.6-11.794,20.7,20.7,0,0,1,12.3-6.514v-3.145q0-4.1,1.6-5.866a5.366,5.366,0,0,1,4.182-1.771,5.313,5.313,0,0,1,4.128,1.771q1.6,1.765,1.6,5.866v3.145a27.064,27.064,0,0,1,7.806,2.246,9.167,9.167,0,0,1,1.713-.758,5.393,5.393,0,0,1,1.6-.251,5.384,5.384,0,0,1,4.185,1.768q1.6,1.771,1.6,5.924v3.706q0,4.159-1.6,5.923a5.309,5.309,0,0,1-4.128,1.771,5.453,5.453,0,0,1-3.9-1.517,6.76,6.76,0,0,1-1.882-4.436,15.789,15.789,0,0,0-10.108-3.2q-6.344,0-9.293,2.275t-2.944,5.025a5.111,5.111,0,0,0,1.8,3.817q1.793,1.685,7.522,2.864l7.637,1.628q9.662,1.966,13.868,5.9,5.508,5,5.5,13.2a18.559,18.559,0,0,1-5.025,12.774q-5.026,5.587-14.348,7.383v9.772q0,4.156-1.6,5.924a5.39,5.39,0,0,1-4.186,1.768A5.31,5.31,0,0,1,12340.387-10736.774Zm-223.67,0q-1.6-1.771-1.6-5.924v-9.772a44.181,44.181,0,0,1-8.985-2.976,7.228,7.228,0,0,1-4.493,2.021,5.613,5.613,0,0,1-4.35-1.741q-1.6-1.737-1.6-5.9v-7.243q0-4.156,1.6-5.924a5.374,5.374,0,0,1,4.182-1.768,5.388,5.388,0,0,1,3.48,1.123,6.311,6.311,0,0,1,2.021,3.452,8,8,0,0,0,1.741,3.509,12.679,12.679,0,0,0,5.138,3,21.256,21.256,0,0,0,7.1,1.206,16.848,16.848,0,0,0,10.67-3.312,6.821,6.821,0,0,0,2.865-5.67,6.3,6.3,0,0,0-1.91-4.718q-1.909-1.794-8.03-3.03l-8.649-1.742q-9.151-1.8-13.418-6.57a16.591,16.591,0,0,1-4.267-11.454,17.224,17.224,0,0,1,4.6-11.794,20.685,20.685,0,0,1,12.3-6.514v-3.145q0-4.1,1.6-5.866a5.373,5.373,0,0,1,4.183-1.771,5.3,5.3,0,0,1,4.127,1.771q1.6,1.765,1.6,5.866v3.145a27.116,27.116,0,0,1,7.806,2.246,9.084,9.084,0,0,1,1.713-.758,5.393,5.393,0,0,1,1.6-.251,5.378,5.378,0,0,1,4.182,1.768q1.6,1.771,1.6,5.924v3.706q0,4.159-1.6,5.923a5.3,5.3,0,0,1-4.125,1.771,5.454,5.454,0,0,1-3.9-1.517,6.746,6.746,0,0,1-1.882-4.436,15.789,15.789,0,0,0-10.108-3.2q-6.344,0-9.293,2.275t-2.948,5.025a5.124,5.124,0,0,0,1.8,3.817q1.8,1.685,7.526,2.864l7.637,1.628q9.656,1.966,13.869,5.9,5.506,5,5.5,13.2a18.56,18.56,0,0,1-5.026,12.774q-5.026,5.587-14.348,7.383v9.772q0,4.156-1.6,5.924a5.375,5.375,0,0,1-4.182,1.768A5.319,5.319,0,0,1,12116.717-10736.774Zm181.265-267.149a33.17,33.17,0,0,1-10.6-7.148,33.237,33.237,0,0,1-7.148-10.6,33.16,33.16,0,0,1-2.621-12.979,33.137,33.137,0,0,1,2.621-12.98,33.265,33.265,0,0,1,7.148-10.6,33.217,33.217,0,0,1,10.6-7.148,33.149,33.149,0,0,1,12.979-2.62,33.15,33.15,0,0,1,12.98,2.62,33.293,33.293,0,0,1,10.6,7.148,33.209,33.209,0,0,1,7.146,10.6,33.136,33.136,0,0,1,2.62,12.98,33.159,33.159,0,0,1-2.62,12.979,33.229,33.229,0,0,1-7.146,10.6,33.245,33.245,0,0,1-10.6,7.148,33.161,33.161,0,0,1-12.98,2.62A33.149,33.149,0,0,1,12297.981-11003.924Z" transform="translate(-11792 11180.998)"/>
  </g>
</svg>
