<svg xmlns="http://www.w3.org/2000/svg" xmlns:xlink="http://www.w3.org/1999/xlink" viewBox="0 0 100 100">
  <defs>
    <style>
      .cls-1 {
        clip-path: url(#clip-bar);
      }

      .cls-2 {
        fill: #00aeef;
        stroke: rgba(0,0,0,0);
      }
    </style>
    <clipPath id="clip-bar">
      <rect width="100" height="100"/>
    </clipPath>
  </defs>
  <g id="bar" class="cls-1">
    <path id="Exclusion_3" data-name="Exclusion 3" class="cls-2" d="M-3953-3244a49.688,49.688,0,0,1-19.462-3.929,49.834,49.834,0,0,1-15.894-10.715,49.83,49.83,0,0,1-10.715-15.893A49.685,49.685,0,0,1-4003-3294a49.685,49.685,0,0,1,3.929-19.462,49.831,49.831,0,0,1,10.715-15.893,49.836,49.836,0,0,1,15.894-10.716A49.688,49.688,0,0,1-3953-3344a49.693,49.693,0,0,1,19.462,3.929,49.832,49.832,0,0,1,15.893,10.716,49.836,49.836,0,0,1,10.715,15.893A49.693,49.693,0,0,1-3903-3294a49.693,49.693,0,0,1-3.929,19.462,49.83,49.83,0,0,1-10.715,15.893,49.831,49.831,0,0,1-15.893,10.715A49.693,49.693,0,0,1-3953-3244Zm10.211-22.459a3.34,3.34,0,0,1,3.221,2.486l.476,1.788a2.008,2.008,0,0,0,1.938,1.49h3.954a1.991,1.991,0,0,0,1.591-.784,1.989,1.989,0,0,0,.348-1.737l-1.385-5.213a3.322,3.322,0,0,1,1.223-3.529,24.741,24.741,0,0,0,5.957-6.27,19.355,19.355,0,0,0,2.837-6.96,6.338,6.338,0,0,0,1.953,1.552,5.39,5.39,0,0,0,2.423.564,7.4,7.4,0,0,0,2.8-.605,5.425,5.425,0,0,0,3.324-4.194c1.383-.582,3.032-2.115,3.033-6.119,0-5.56-5.9-7.506-6.146-7.586a.708.708,0,0,0-.215-.033.705.705,0,0,0-.674.492.709.709,0,0,0,.458.889c.052.015,5.166,1.7,5.165,6.239,0,2.149-.509,3.641-1.51,4.432-.119-2.732-1.568-5.347-3.374-6.084a2.824,2.824,0,0,0-1.066-.215,3.169,3.169,0,0,0-2.253,1.057,3.37,3.37,0,0,0-.521,4.305,6.483,6.483,0,0,0,5.3,2.972c.084,0,.171,0,.259-.007a3.885,3.885,0,0,1-2.324,2.545,5.978,5.978,0,0,1-2.261.5,3.989,3.989,0,0,1-1.792-.411,5.719,5.719,0,0,1-2.321-2.345c.028-.393.043-.713.047-1.01-.02.06-.042.124-.073.2a19.172,19.172,0,0,0-3.54-11.466l-.013-.02-.091-.14c-.1-.141-.205-.279-.3-.407a19.169,19.169,0,0,0-2.605-2.928l0,0a32.188,32.188,0,0,0-15.657-7.926,10.286,10.286,0,0,1-2.71,2.124c-.2.132-.364.236-.521.325,1.254.112,2.489.264,3.669.451l-.176,1.112a44.177,44.177,0,0,0-8.036-.638,53.238,53.238,0,0,0-8.562.638l-.177-1.112c1.438-.227,2.895-.4,4.328-.508a8.906,8.906,0,0,1-1-.689,10.319,10.319,0,0,1-2.194-1.917,35.046,35.046,0,0,0-11.139,3.993,9.827,9.827,0,0,1-4.864,1.281,10.126,10.126,0,0,1-1.25-.078,41.746,41.746,0,0,0-5.138-.3l2.672,6.69a19.4,19.4,0,0,0-3.441,8.328,3.166,3.166,0,0,1-3.146,2.706v9.254a10.8,10.8,0,0,1,8.1,3.689,26.306,26.306,0,0,0,4,3.669,3.32,3.32,0,0,1,1.22,3.55l-1.4,5.153a1.991,1.991,0,0,0,.341,1.744,1.991,1.991,0,0,0,1.594.788h3.948a2.011,2.011,0,0,0,1.937-1.479l.493-1.813a3.344,3.344,0,0,1,3.216-2.468,3.344,3.344,0,0,1,.781.093,39.32,39.32,0,0,0,9.239,1.087,39.323,39.323,0,0,0,9.255-1.091A3.323,3.323,0,0,1-3942.789-3266.459Zm-9.409-60.847a9.459,9.459,0,0,0-9.447,9.449,9.459,9.459,0,0,0,9.447,9.448,9.459,9.459,0,0,0,9.448-9.448A9.459,9.459,0,0,0-3952.2-3327.306Zm38.289,38.366a5.144,5.144,0,0,1-4.1-2.271,1.969,1.969,0,0,1,.31-2.6,1.76,1.76,0,0,1,1.244-.632,1.421,1.421,0,0,1,.532.109c1.351.55,2.5,2.893,2.5,5.116,0,.09,0,.17,0,.244A3.55,3.55,0,0,1-3913.909-3288.939Zm-61.155-3.01a1.092,1.092,0,0,1-1.089-1.091,1.09,1.09,0,0,1,1.089-1.089,1.09,1.09,0,0,1,1.089,1.089A1.092,1.092,0,0,1-3975.064-3291.95Zm21.837-18.45h0a7.542,7.542,0,0,1-6.427-6.428h.354a1.031,1.031,0,0,0,1.03-1.029,1.031,1.031,0,0,0-1.03-1.03h-.354a7.544,7.544,0,0,1,6.428-6.428v.355a1.031,1.031,0,0,0,1.028,1.031,1.032,1.032,0,0,0,1.031-1.031v-.355a7.541,7.541,0,0,1,6.427,6.428h-.354a1.031,1.031,0,0,0-1.03,1.03,1.031,1.031,0,0,0,1.03,1.029l.354,0a7.536,7.536,0,0,1-6.426,6.424v-.351a1.032,1.032,0,0,0-1.03-1.031,1.031,1.031,0,0,0-1.029,1.031v.351Zm-2.78-9.4a.711.711,0,0,0-.654.429.71.71,0,0,0-.007.546.708.708,0,0,0,.38.391l3.19,1.284a.192.192,0,0,1,.095.072l.012.014a1.09,1.09,0,0,0,.793.345,1.087,1.087,0,0,0,1.085-1.086.211.211,0,0,1,.056-.164l3.957-3.589a.53.53,0,0,0,.036-.747.533.533,0,0,0-.393-.174.526.526,0,0,0-.355.137l-3.861,3.5a.133.133,0,0,1-.08.038.079.079,0,0,1-.036-.01l0,0,0,0a1.075,1.075,0,0,0-.4-.078,1.076,1.076,0,0,0-.647.216l0,0a.17.17,0,0,1-.1.042.1.1,0,0,1-.054-.016l-2.724-1.1A.7.7,0,0,0-3956.006-3319.8Z" transform="translate(4003 3344)"/>
  </g>
</svg>
