<svg xmlns="http://www.w3.org/2000/svg" xmlns:xlink="http://www.w3.org/1999/xlink" viewBox="0 0 50 50">
  <defs>
    <style>
      .cls-1 {
        clip-path: url(#clip-twitter);
      }

      .cls-2 {
        fill: #fff;
      }

      .cls-3 {
        fill: #00aeef;
        fill-rule: evenodd;
      }
    </style>
    <clipPath id="clip-twitter">
      <rect width="50" height="50"/>
    </clipPath>
  </defs>
  <g id="twitter" class="cls-1">
    <g id="Group_39" data-name="Group 39" transform="translate(6 6)">
      <g id="Group_38" data-name="Group 38">
        <path id="Path_31" data-name="Path 31" class="cls-2" d="M0,19.46A19.455,19.455,0,1,1,19.45,38.92,19.457,19.457,0,0,1,0,19.46Z"/>
      </g>
      <path id="Path_32" data-name="Path 32" class="cls-3" d="M17.47,23.23a2.956,2.956,0,0,1-2.74-2.04,2.978,2.978,0,0,0,1.26-.04c.01,0,.02-.01.04-.02a2.945,2.945,0,0,1-2.34-2.91,2.986,2.986,0,0,0,1.31.36,2.97,2.97,0,0,1-.9-3.91,8.4,8.4,0,0,0,6.06,3.07c-.02-.12-.04-.22-.05-.32a2.935,2.935,0,0,1,4.99-2.43.16.16,0,0,0,.16.05,5.944,5.944,0,0,0,1.71-.66c.01-.01.03-.01.04-.02h.02a3.029,3.029,0,0,1-1.26,1.6,5.538,5.538,0,0,0,1.64-.44.01.01,0,0,0,.01.01c-.11.15-.22.3-.34.44a6.092,6.092,0,0,1-1.07,1.02c-.03.03-.05.05-.05.09a8.034,8.034,0,0,1-.05,1.3A8.655,8.655,0,0,1,25.15,21a8.4,8.4,0,0,1-1.59,2.32,7.866,7.866,0,0,1-4.04,2.25,9.074,9.074,0,0,1-1.64.2,8.276,8.276,0,0,1-4.7-1.26.231.231,0,0,1-.07-.05,5.881,5.881,0,0,0,2.94-.41A5.266,5.266,0,0,0,17.47,23.23Z"/>
    </g>
  </g>
</svg>
