<svg xmlns="http://www.w3.org/2000/svg" xmlns:xlink="http://www.w3.org/1999/xlink" viewBox="0 0 100 100">
  <defs>
    <style>
      .cls-1 {
        clip-path: url(#clip-middle);
      }

      .cls-2 {
        fill: #fff;
        stroke: rgba(0,0,0,0);
      }
    </style>
    <clipPath id="clip-middle">
      <rect width="100" height="100"/>
    </clipPath>
  </defs>
  <g id="middle" class="cls-1">
    <path id="Exclusion_2" data-name="Exclusion 2" class="cls-2" d="M50,100a50.371,50.371,0,0,1-10.077-1.016,49.726,49.726,0,0,1-17.879-7.523,50.146,50.146,0,0,1-18.115-22,49.748,49.748,0,0,1-2.913-9.385,50.488,50.488,0,0,1,0-20.153A49.726,49.726,0,0,1,8.539,22.045a50.146,50.146,0,0,1,22-18.115,49.749,49.749,0,0,1,9.386-2.913,50.488,50.488,0,0,1,20.153,0A49.726,49.726,0,0,1,77.956,8.539a50.146,50.146,0,0,1,18.115,22,49.75,49.75,0,0,1,2.913,9.386,50.487,50.487,0,0,1,0,20.153,49.727,49.727,0,0,1-7.523,17.879,50.146,50.146,0,0,1-22,18.115,49.749,49.749,0,0,1-9.385,2.913A50.37,50.37,0,0,1,50,100ZM34.142,41.028a5.171,5.171,0,0,0-5.165,5.166V74.121a5.172,5.172,0,0,0,5.165,5.166h34.1c2.12,0,3.349-.333,4.111-1.115.739-.758,1.054-1.97,1.054-4.051V72.746H60.985A5.19,5.19,0,0,1,55.8,67.562V63.4a5.19,5.19,0,0,1,5.184-5.184H73.412V51.521a4.293,4.293,0,0,0-.7-2.4,4.193,4.193,0,0,0-2.689-.684c-.262,0-.43.011-.432.011H51.8c-.184.007-.393.015-.6.015s-.416-.008-.6-.015H34.829a2.139,2.139,0,1,1,0-4.277h5.953a14.816,14.816,0,0,1-2.413-3.148H34.142Zm26.842,19.13a3.244,3.244,0,0,0-3.24,3.24v4.165a3.244,3.244,0,0,0,3.24,3.24H74.106a3.244,3.244,0,0,0,3.24-3.24V63.4a3.244,3.244,0,0,0-3.24-3.24ZM51.195,20.7A12.991,12.991,0,1,0,64.186,33.69,13.006,13.006,0,0,0,51.195,20.7Zm12.826,20.33a14.824,14.824,0,0,1-2.413,3.148H71.838a1.574,1.574,0,1,0,0-3.148H64.021Zm-1.686,26.5a2.052,2.052,0,1,1,2.052-2.052A2.054,2.054,0,0,1,62.335,67.532ZM49.778,43.943h0A10.345,10.345,0,0,1,40.941,35.1h.486a1.416,1.416,0,1,0,0-2.832h-.486a10.345,10.345,0,0,1,8.837-8.838v.49a1.416,1.416,0,1,0,2.833,0v-.49a10.346,10.346,0,0,1,8.837,8.838h-.487a1.416,1.416,0,1,0,0,2.832l.487.005a10.345,10.345,0,0,1-8.837,8.832v-.484a1.416,1.416,0,1,0-2.833,0v.484ZM45.958,31.014a.979.979,0,0,0-.388,1.879l4.387,1.765a.27.27,0,0,1,.131.1l.016.019a1.478,1.478,0,0,0,1.091.475,1.5,1.5,0,0,0,1.493-1.494.285.285,0,0,1,.076-.224L58.2,28.6a.728.728,0,0,0-.978-1.078l-5.309,4.817a.18.18,0,0,1-.11.053.112.112,0,0,1-.049-.013l-.011,0a1.461,1.461,0,0,0-.553-.108,1.478,1.478,0,0,0-.891.3l-.006,0a.228.228,0,0,1-.133.057.143.143,0,0,1-.074-.021l-3.746-1.507A.973.973,0,0,0,45.958,31.014Z"/>
  </g>
</svg>
