<svg xmlns="http://www.w3.org/2000/svg" xmlns:xlink="http://www.w3.org/1999/xlink" viewBox="0 0 100 100">
  <defs>
    <style>
      .cls-1 {
        clip-path: url(#clip-time);
      }

      .cls-2 {
        fill: #00aeef;
        stroke: rgba(0,0,0,0);
      }
    </style>
    <clipPath id="clip-time">
      <rect width="100" height="100"/>
    </clipPath>
  </defs>
  <g id="time" class="cls-1">
    <path id="Exclusion_1" data-name="Exclusion 1" class="cls-2" d="M-4571.807-3192.807a50.369,50.369,0,0,1-9.55-.915,50.035,50.035,0,0,1-9.266-2.746,49.73,49.73,0,0,1-8.7-4.577,50.383,50.383,0,0,1-7.843-6.407,50.407,50.407,0,0,1-6.408-7.844,49.779,49.779,0,0,1-4.576-8.7,50,50,0,0,1-2.746-9.265,50.356,50.356,0,0,1-.915-9.55,50.359,50.359,0,0,1,.915-9.55,50,50,0,0,1,2.746-9.265,49.788,49.788,0,0,1,4.576-8.7,50.407,50.407,0,0,1,6.408-7.844,50.37,50.37,0,0,1,7.843-6.407,49.729,49.729,0,0,1,8.7-4.576,50.017,50.017,0,0,1,9.266-2.746,50.369,50.369,0,0,1,9.55-.915,50.373,50.373,0,0,1,9.55.915,50.017,50.017,0,0,1,9.266,2.746,49.729,49.729,0,0,1,8.7,4.576,50.383,50.383,0,0,1,7.844,6.407,50.386,50.386,0,0,1,6.407,7.844,49.8,49.8,0,0,1,4.576,8.7,50,50,0,0,1,2.746,9.265,50.359,50.359,0,0,1,.915,9.55,50.356,50.356,0,0,1-.915,9.55,50.009,50.009,0,0,1-2.746,9.265,49.777,49.777,0,0,1-4.576,8.7,50.425,50.425,0,0,1-6.407,7.844,50.378,50.378,0,0,1-7.844,6.407,49.764,49.764,0,0,1-8.7,4.577,50.035,50.035,0,0,1-9.266,2.746A50.373,50.373,0,0,1-4571.807-3192.807Zm12.676-42.238a9.936,9.936,0,0,0-9.925,9.926,9.936,9.936,0,0,0,9.925,9.924,9.936,9.936,0,0,0,9.925-9.924A9.936,9.936,0,0,0-4559.131-3235.045Zm-13.241-35.374a27.643,27.643,0,0,0-27.611,27.613,27.642,27.642,0,0,0,27.611,27.609,27.768,27.768,0,0,0,5.778-.61,11.931,11.931,0,0,1-4.469-8.944,2.982,2.982,0,0,0-1.31-.3,3.013,3.013,0,0,0-3.009,3.01v1.029a21.825,21.825,0,0,1-6.858-2.127,22,22,0,0,1-5.687-4.111,22,22,0,0,1-4.111-5.688,21.848,21.848,0,0,1-2.127-6.858h1.033a3.014,3.014,0,0,0,3.012-3.01,3.014,3.014,0,0,0-3.012-3.009h-1.033a21.834,21.834,0,0,1,2.128-6.858,22.019,22.019,0,0,1,4.111-5.688,22.01,22.01,0,0,1,5.687-4.111,21.833,21.833,0,0,1,6.858-2.127v1.041a3.013,3.013,0,0,0,3.008,3.01,3.014,3.014,0,0,0,3.012-3.01v-1.041a21.822,21.822,0,0,1,6.857,2.127,22.007,22.007,0,0,1,5.687,4.111,22.006,22.006,0,0,1,4.111,5.688,21.844,21.844,0,0,1,2.128,6.858h-1.035a3.013,3.013,0,0,0-3.01,3.009.511.511,0,0,0,0,.056v.01c0,.01,0,.021,0,.031h9.574c.1,0,.193.007.281.014,0-.019,0-.037,0-.055s0-.036,0-.054A27.643,27.643,0,0,0-4572.372-3270.419Zm22.865,51.091h0a11.379,11.379,0,0,1-2.408,2.823h6.871a1.415,1.415,0,0,0,1.414-1.413,1.413,1.413,0,0,0-1.414-1.41Zm1.408-3.562a11.16,11.16,0,0,1-1,2.824h4.053a1.415,1.415,0,0,0,1.414-1.414,1.414,1.414,0,0,0-1.414-1.411Zm.148-3.562a11.263,11.263,0,0,1,.081,1.3,11.124,11.124,0,0,1-.117,1.53h2.942a1.415,1.415,0,0,0,1.414-1.413,1.415,1.415,0,0,0-1.414-1.412Zm-1.029-3.56h0a11.12,11.12,0,0,1,.916,2.825h3.02a1.415,1.415,0,0,0,1.414-1.414,1.414,1.414,0,0,0-1.414-1.411Zm-2.676-3.562a11.257,11.257,0,0,1,2.291,2.825h4.32a1.415,1.415,0,0,0,1.414-1.414,1.414,1.414,0,0,0-1.414-1.411Zm-3.845-3.56a1.411,1.411,0,0,0-1.32.923,11.193,11.193,0,0,1,4.254,1.9h7.522a1.414,1.414,0,0,0,1.414-1.41,1.415,1.415,0,0,0-1.414-1.414Zm0-3.562a1.416,1.416,0,0,0-1.415,1.414,1.415,1.415,0,0,0,1.415,1.411h10.457a1.416,1.416,0,0,0,1.414-1.415,1.414,1.414,0,0,0-1.414-1.411Zm-28-7.8a2.081,2.081,0,0,0-1.913,1.257,2.087,2.087,0,0,0,1.089,2.736l9.325,3.75a.562.562,0,0,1,.276.209l0,0,.032.037a3.139,3.139,0,0,0,2.317,1.01,3.178,3.178,0,0,0,3.174-3.175.606.606,0,0,1,.161-.477l11.564-10.49a1.548,1.548,0,0,0,.1-2.183,1.552,1.552,0,0,0-1.146-.507,1.542,1.542,0,0,0-1.037.4l-11.284,10.238a.381.381,0,0,1-.234.114.243.243,0,0,1-.1-.027l0,0-.02-.008a3.108,3.108,0,0,0-1.176-.23,3.144,3.144,0,0,0-1.894.631l-.012.009a.489.489,0,0,1-.282.122.3.3,0,0,1-.158-.046l-7.962-3.2A2.065,2.065,0,0,0-4583.5-3248.492Zm24.372,31.282a7.858,7.858,0,0,1-5.593-2.316,7.859,7.859,0,0,1-2.317-5.592,7.859,7.859,0,0,1,2.317-5.593,7.857,7.857,0,0,1,5.593-2.317,7.856,7.856,0,0,1,5.592,2.317,7.858,7.858,0,0,1,2.317,5.593,7.857,7.857,0,0,1-2.317,5.592A7.856,7.856,0,0,1-4559.131-3217.21Zm-1.906-6.2a.282.282,0,0,0-.194.078l-.836.79a.291.291,0,0,0-.01.406,3.878,3.878,0,0,0,1.938,1.07v.656a.288.288,0,0,0,.288.287h1.148a.288.288,0,0,0,.288-.287v-.624a2.358,2.358,0,0,0,2.174-2.259c.015-1.807-1.568-2.288-2.616-2.606-1.231-.372-1.5-.563-1.5-1.08s.838-.662,1.334-.662h0a2.765,2.765,0,0,1,1.358.363.287.287,0,0,0,.155.046.287.287,0,0,0,.241-.131l.623-.964a.281.281,0,0,0,.042-.215.287.287,0,0,0-.127-.182,4.243,4.243,0,0,0-1.691-.6v-.594a.288.288,0,0,0-.288-.287h-1.148a.288.288,0,0,0-.288.287v.689a2.33,2.33,0,0,0-1.938,2.248c0,1.908,1.635,2.4,2.717,2.728,1.165.353,1.4.513,1.4.951,0,.486-.8.615-1.274.615a2.339,2.339,0,0,1-1.588-.636.279.279,0,0,0-.2-.089Zm-3.131,1.022h0l-.077.03,0,0-.01,0-.063.024c.046.084.1.167.146.246l.033.053a2.42,2.42,0,0,1-.025-.357Z" transform="translate(4621.806 3292.807)"/>
  </g>
</svg>
